<svg xmlns="http://www.w3.org/2000/svg" width="20" height="20" viewBox="0 0 20 20" fill="none">
    <path d="M18.5021 3.44829H1.49785C0.670586 3.44829 0 4.11887 0 4.94614V7.42813H20V4.94614C20 4.11887 19.3294 3.44829 18.5021 3.44829Z" fill="#82AFFF"/>
    <path d="M0 15.0539C0 15.8811 0.670586 16.5517 1.49785 16.5517H18.5021C19.3294 16.5517 20 15.8811 20 15.0539V12.5719H0V15.0539Z" fill="#73AF00"/>
    <path d="M20 7.97266H0V12.027H20V7.97266Z" fill="#F5F5F5"/>
    <path d="M0 7.81609V7.97273H20V7.81609V7.42809H0V7.81609Z" fill="#FF4B55"/>
    <path d="M0 12.1839V12.5719H20V12.1839V12.0273H0V12.1839Z" fill="#FF4B55"/>
    <path d="M4.4332 6.72153C3.72726 6.72153 3.15503 6.15067 3.15503 5.44727C3.15503 4.74129 3.72722 4.16785 4.4332 4.16785C4.43593 4.16785 4.43859 4.16785 4.44124 4.16789C4.48281 4.16844 4.49738 4.11325 4.46074 4.0936C4.24335 3.97707 3.99527 3.91114 3.73152 3.91305C2.88683 3.91907 2.2007 4.61903 2.20968 5.46371C2.21851 6.29969 2.90195 6.97637 3.74257 6.97637C4.00269 6.97637 4.2473 6.91055 4.46199 6.79563C4.49851 6.77606 4.48374 6.72086 4.44234 6.72145C4.43921 6.72153 4.43621 6.72153 4.4332 6.72153Z" fill="#F5F5F5"/>
    <path d="M5.43403 6.36915L5.37696 6.54032L5.19653 6.54169C5.17317 6.54185 5.16349 6.57169 5.18228 6.58556L5.32743 6.69274L5.27298 6.86478C5.26595 6.88704 5.2913 6.90548 5.31032 6.89188L5.45712 6.78696L5.60392 6.89188C5.62294 6.90548 5.64825 6.88704 5.64126 6.86478L5.58681 6.69274L5.73192 6.58556C5.75071 6.57169 5.74103 6.54185 5.71767 6.54169L5.53724 6.54032L5.48017 6.36915C5.47278 6.347 5.44146 6.347 5.43403 6.36915Z" fill="#F5F5F5"/>
    <path d="M6.70527 6.36915L6.6482 6.54032L6.46777 6.54169C6.44441 6.54185 6.43473 6.57169 6.45352 6.58556L6.59863 6.69274L6.54418 6.86478C6.53715 6.88704 6.5625 6.90548 6.58152 6.89188L6.72832 6.78696L6.87512 6.89188C6.89414 6.90548 6.91945 6.88704 6.91246 6.86478L6.85801 6.69274L7.00313 6.58556C7.02191 6.57169 7.01223 6.54185 6.98887 6.54169L6.80844 6.54032L6.75137 6.36915C6.74398 6.347 6.71262 6.347 6.70527 6.36915Z" fill="#F5F5F5"/>
    <path d="M7.97639 6.36915L7.91932 6.54032L7.73889 6.54169C7.71553 6.54185 7.70585 6.57169 7.72463 6.58556L7.86979 6.69274L7.81534 6.86478C7.80831 6.88704 7.83366 6.90548 7.85268 6.89188L7.99948 6.78696L8.14627 6.89188C8.1653 6.90548 8.19061 6.88704 8.18362 6.86478L8.12917 6.69274L8.27428 6.58556C8.29307 6.57169 8.28338 6.54185 8.26002 6.54169L8.07959 6.54032L8.02252 6.36915C8.01514 6.347 7.98377 6.347 7.97639 6.36915Z" fill="#F5F5F5"/>
    <path d="M9.24763 6.36915L9.19056 6.54032L9.01013 6.54169C8.98677 6.54185 8.97709 6.57169 8.99587 6.58556L9.14099 6.69274L9.08654 6.86478C9.07951 6.88704 9.10486 6.90548 9.12388 6.89188L9.27068 6.78696L9.41748 6.89188C9.4365 6.90548 9.46181 6.88704 9.45482 6.86478L9.40037 6.69274L9.54548 6.58556C9.56427 6.57169 9.55459 6.54185 9.53123 6.54169L9.3508 6.54032L9.29373 6.36915C9.28638 6.347 9.25502 6.347 9.24763 6.36915Z" fill="#F5F5F5"/>
    <path d="M10.5189 6.36915L10.4618 6.54032L10.2814 6.54169C10.258 6.54185 10.2483 6.57169 10.2671 6.58556L10.4123 6.69274L10.3578 6.86478C10.3508 6.88704 10.3761 6.90548 10.3952 6.89188L10.542 6.78696L10.6888 6.89188C10.7078 6.90548 10.7331 6.88704 10.7261 6.86478L10.6716 6.69274L10.8168 6.58556C10.8356 6.57169 10.8259 6.54185 10.8025 6.54169L10.6221 6.54032L10.565 6.36915C10.5576 6.347 10.5263 6.347 10.5189 6.36915Z" fill="#F5F5F5"/>
    <path d="M6.70527 5.18273L6.6482 5.3539L6.46777 5.35527C6.44441 5.35543 6.43473 5.38527 6.45352 5.39914L6.59863 5.50633L6.54418 5.67836C6.53715 5.70062 6.5625 5.71906 6.58152 5.70547L6.72832 5.60054L6.87512 5.70547C6.89414 5.71906 6.91945 5.70062 6.91246 5.67836L6.85801 5.50633L7.00313 5.39914C7.02191 5.38527 7.01223 5.35543 6.98887 5.35527L6.80844 5.3539L6.75137 5.18273C6.74398 5.1605 6.71262 5.1605 6.70527 5.18273Z" fill="#F5F5F5"/>
    <path d="M7.97639 5.18273L7.91932 5.3539L7.73889 5.35527C7.71553 5.35543 7.70585 5.38527 7.72463 5.39914L7.86979 5.50633L7.81534 5.67836C7.80831 5.70062 7.83366 5.71906 7.85268 5.70547L7.99948 5.60054L8.14627 5.70547C8.1653 5.71906 8.19061 5.70062 8.18362 5.67836L8.12917 5.50633L8.27428 5.39914C8.29307 5.38527 8.28338 5.35543 8.26002 5.35527L8.07959 5.3539L8.02252 5.18273C8.01514 5.1605 7.98377 5.1605 7.97639 5.18273Z" fill="#F5F5F5"/>
    <path d="M9.24763 5.18273L9.19056 5.3539L9.01013 5.35527C8.98677 5.35543 8.97709 5.38527 8.99587 5.39914L9.14099 5.50633L9.08654 5.67836C9.07951 5.70062 9.10486 5.71906 9.12388 5.70547L9.27068 5.60054L9.41748 5.70547C9.4365 5.71906 9.46181 5.70062 9.45482 5.67836L9.40037 5.50633L9.54548 5.39914C9.56427 5.38527 9.55459 5.35543 9.53123 5.35527L9.3508 5.3539L9.29373 5.18273C9.28638 5.1605 9.25502 5.1605 9.24763 5.18273Z" fill="#F5F5F5"/>
    <path d="M10.5189 5.18273L10.4618 5.3539L10.2814 5.35527C10.258 5.35543 10.2483 5.38527 10.2671 5.39914L10.4123 5.50633L10.3578 5.67836C10.3508 5.70062 10.3761 5.71906 10.3952 5.70547L10.542 5.60054L10.6888 5.70547C10.7078 5.71906 10.7331 5.70062 10.7261 5.67836L10.6716 5.50633L10.8168 5.39914C10.8356 5.38527 10.8259 5.35543 10.8025 5.35527L10.6221 5.3539L10.565 5.18273C10.5576 5.1605 10.5263 5.1605 10.5189 5.18273Z" fill="#F5F5F5"/>
    <path d="M7.97639 6.36915L7.91932 6.54032L7.73889 6.54169C7.71553 6.54185 7.70585 6.57169 7.72463 6.58556L7.86979 6.69274L7.81534 6.86478C7.80831 6.88704 7.83366 6.90548 7.85268 6.89188L7.99948 6.78696L8.14627 6.89188C8.1653 6.90548 8.19061 6.88704 8.18362 6.86478L8.12917 6.69274L8.27428 6.58556C8.29307 6.57169 8.28338 6.54185 8.26002 6.54169L8.07959 6.54032L8.02252 6.36915C8.01514 6.347 7.98377 6.347 7.97639 6.36915Z" fill="#F5F5F5"/>
    <path d="M7.97639 3.99626L7.91932 4.16743L7.73889 4.1688C7.71553 4.16895 7.70585 4.1988 7.72463 4.21266L7.86979 4.31985L7.81534 4.49188C7.80831 4.51415 7.83366 4.53258 7.85268 4.51899L7.99948 4.41407L8.14627 4.51899C8.1653 4.53258 8.19061 4.51415 8.18362 4.49188L8.12917 4.31985L8.27428 4.21266C8.29307 4.1988 8.28338 4.16895 8.26002 4.1688L8.07959 4.16743L8.02252 3.99626C8.01514 3.97411 7.98377 3.97411 7.97639 3.99626Z" fill="#F5F5F5"/>
    <path d="M9.24763 6.36915L9.19056 6.54032L9.01013 6.54169C8.98677 6.54185 8.97709 6.57169 8.99587 6.58556L9.14099 6.69274L9.08654 6.86478C9.07951 6.88704 9.10486 6.90548 9.12388 6.89188L9.27068 6.78696L9.41748 6.89188C9.4365 6.90548 9.46181 6.88704 9.45482 6.86478L9.40037 6.69274L9.54548 6.58556C9.56427 6.57169 9.55459 6.54185 9.53123 6.54169L9.3508 6.54032L9.29373 6.36915C9.28638 6.347 9.25502 6.347 9.24763 6.36915Z" fill="#F5F5F5"/>
    <path d="M10.5189 6.36915L10.4618 6.54032L10.2814 6.54169C10.258 6.54185 10.2483 6.57169 10.2671 6.58556L10.4123 6.69274L10.3578 6.86478C10.3508 6.88704 10.3761 6.90548 10.3952 6.89188L10.542 6.78696L10.6888 6.89188C10.7078 6.90548 10.7331 6.88704 10.7261 6.86478L10.6716 6.69274L10.8168 6.58556C10.8356 6.57169 10.8259 6.54185 10.8025 6.54169L10.6221 6.54032L10.565 6.36915C10.5576 6.347 10.5263 6.347 10.5189 6.36915Z" fill="#F5F5F5"/>
    <path d="M9.24763 3.99626L9.19056 4.16743L9.01013 4.1688C8.98677 4.16895 8.97709 4.1988 8.99587 4.21266L9.14099 4.31985L9.08654 4.49188C9.07951 4.51415 9.10486 4.53258 9.12388 4.51899L9.27068 4.41407L9.41748 4.51899C9.4365 4.53258 9.46181 4.51415 9.45482 4.49188L9.40037 4.31985L9.54548 4.21266C9.56427 4.1988 9.55459 4.16895 9.53123 4.1688L9.3508 4.16743L9.29373 3.99626C9.28638 3.97411 9.25502 3.97411 9.24763 3.99626Z" fill="#F5F5F5"/>
    <path d="M10.5189 3.99626L10.4618 4.16743L10.2814 4.1688C10.258 4.16895 10.2483 4.1988 10.2671 4.21266L10.4123 4.31985L10.3578 4.49188C10.3508 4.51415 10.3761 4.53258 10.3952 4.51899L10.542 4.41407L10.6888 4.51899C10.7078 4.53258 10.7331 4.51415 10.7261 4.49188L10.6716 4.31985L10.8168 4.21266C10.8356 4.1988 10.8259 4.16895 10.8025 4.1688L10.6221 4.16743L10.565 3.99626C10.5576 3.97411 10.5263 3.97411 10.5189 3.99626Z" fill="#F5F5F5"/>
</svg>